name rise36.2859peak64.2979fall75.1499.mot
datacolumns 19
datarows 21
range 8.17497100000000 8.20830000000000
endheader
time	ground_force1_vx	ground_force1_vy	ground_force1_vz	ground_force1_px	ground_force1_py	ground_force1_pz	ground_force2_vx	ground_force2_vy	ground_force2_vz	ground_force2_px	ground_force2_py	ground_force2_pz	ground_torque1_x	ground_torque1_y	ground_torque1_z	ground_torque2_x	ground_torque2_y	ground_torque2_z	
8.17497100000000	-1.61784700000000	707.41877599999998	51.31012300000000	0.24365600000000	0.00000000000000	0.11640500000000	0.00000000000000	0.00000000000000	0.00000000000000	0.00000000000000	0.00000000000000	0.00000000000000	0.00000000000000	25.29547500000000	0.00000000000000	0.00000000000000	0.00000000000000	0.00000000000000	
8.17663600000000	-2.21166400000000	707.68969400000003	51.22595700000000	0.24236800000000	0.00000000000000	0.11633300000000	0.00000000000000	0.00000000000000	0.00000000000000	0.00000000000000	0.00000000000000	0.00000000000000	0.00000000000000	25.31425100000000	0.00000000000000	0.00000000000000	0.00000000000000	0.00000000000000	
8.17830000000000	-2.81069100000000	707.99521000000004	51.13994600000000	0.24110000000000	0.00000000000000	0.11625900000000	0.00000000000000	0.00000000000000	0.00000000000000	0.00000000000000	0.00000000000000	0.00000000000000	0.00000000000000	25.33529600000000	0.00000000000000	0.00000000000000	0.00000000000000	0.00000000000000	
8.17998900000000	-3.41486700000000	708.33549400000004	51.05223600000000	0.23985300000000	0.00000000000000	0.11618200000000	0.00000000000000	0.00000000000000	0.00000000000000	0.00000000000000	0.00000000000000	0.00000000000000	0.00000000000000	25.35861600000000	0.00000000000000	0.00000000000000	0.00000000000000	0.00000000000000	
8.18163700000000	-4.02411700000000	708.71072100000004	50.96299500000000	0.23862800000000	0.00000000000000	0.11610200000000	0.00000000000000	0.00000000000000	0.00000000000000	0.00000000000000	0.00000000000000	0.00000000000000	0.00000000000000	25.38421700000000	0.00000000000000	0.00000000000000	0.00000000000000	0.00000000000000	
8.18330000000000	-4.63835100000000	709.12106700000004	50.87241200000000	0.23742400000000	0.00000000000000	0.11602000000000	0.00000000000000	0.00000000000000	0.00000000000000	0.00000000000000	0.00000000000000	0.00000000000000	0.00000000000000	25.41210600000000	0.00000000000000	0.00000000000000	0.00000000000000	0.00000000000000	
8.18496700000000	-5.25746800000000	709.56670899999995	50.78069600000000	0.23624200000000	0.00000000000000	0.11593500000000	0.00000000000000	0.00000000000000	0.00000000000000	0.00000000000000	0.00000000000000	0.00000000000000	0.00000000000000	25.44229300000000	0.00000000000000	0.00000000000000	0.00000000000000	0.00000000000000	
8.18664400000000	-5.88135200000000	710.04782200000000	50.68807900000000	0.23508100000000	0.00000000000000	0.11584900000000	0.00000000000000	0.00000000000000	0.00000000000000	0.00000000000000	0.00000000000000	0.00000000000000	0.00000000000000	25.47478800000000	0.00000000000000	0.00000000000000	0.00000000000000	0.00000000000000	
8.18829900000000	-6.50987600000000	710.56457999999998	50.59481000000000	0.23394200000000	0.00000000000000	0.11576000000000	0.00000000000000	0.00000000000000	0.00000000000000	0.00000000000000	0.00000000000000	0.00000000000000	0.00000000000000	25.50960500000000	0.00000000000000	0.00000000000000	0.00000000000000	0.00000000000000	
8.18998900000000	-7.14290000000000	711.11715500000003	50.50115700000000	0.23282400000000	0.00000000000000	0.11567000000000	0.00000000000000	0.00000000000000	0.00000000000000	0.00000000000000	0.00000000000000	0.00000000000000	0.00000000000000	25.54675500000000	0.00000000000000	0.00000000000000	0.00000000000000	0.00000000000000	
8.19163500000000	-7.78027200000000	711.70571299999995	50.40740700000000	0.23172700000000	0.00000000000000	0.11557900000000	0.00000000000000	0.00000000000000	0.00000000000000	0.00000000000000	0.00000000000000	0.00000000000000	0.00000000000000	25.58625500000000	0.00000000000000	0.00000000000000	0.00000000000000	0.00000000000000	
8.19330300000000	-8.42182900000000	712.33041300000002	50.31386200000000	0.23065000000000	0.00000000000000	0.11548600000000	0.00000000000000	0.00000000000000	0.00000000000000	0.00000000000000	0.00000000000000	0.00000000000000	0.00000000000000	25.62812000000000	0.00000000000000	0.00000000000000	0.00000000000000	0.00000000000000	
8.19498100000000	-9.06739900000000	712.99140899999998	50.22084000000000	0.22959300000000	0.00000000000000	0.11539200000000	0.00000000000000	0.00000000000000	0.00000000000000	0.00000000000000	0.00000000000000	0.00000000000000	0.00000000000000	25.67236800000000	0.00000000000000	0.00000000000000	0.00000000000000	0.00000000000000	
8.19663700000000	-9.71679800000000	713.68884300000002	50.12867200000000	0.22855700000000	0.00000000000000	0.11529800000000	0.00000000000000	0.00000000000000	0.00000000000000	0.00000000000000	0.00000000000000	0.00000000000000	0.00000000000000	25.71901600000000	0.00000000000000	0.00000000000000	0.00000000000000	0.00000000000000	
8.19830300000000	-10.36983000000000	714.42285000000004	50.03770300000000	0.22753900000000	0.00000000000000	0.11520300000000	0.00000000000000	0.00000000000000	0.00000000000000	0.00000000000000	0.00000000000000	0.00000000000000	0.00000000000000	25.76808300000000	0.00000000000000	0.00000000000000	0.00000000000000	0.00000000000000	
8.19998900000000	-11.02629200000000	715.19354899999996	49.94828800000000	0.22654000000000	0.00000000000000	0.11510700000000	0.00000000000000	0.00000000000000	0.00000000000000	0.00000000000000	0.00000000000000	0.00000000000000	0.00000000000000	25.81958700000000	0.00000000000000	0.00000000000000	0.00000000000000	0.00000000000000	
8.20163400000000	-11.68597100000000	716.00104999999996	49.86079300000000	0.22555900000000	0.00000000000000	0.11501200000000	0.00000000000000	0.00000000000000	0.00000000000000	0.00000000000000	0.00000000000000	0.00000000000000	0.00000000000000	25.87354700000000	0.00000000000000	0.00000000000000	0.00000000000000	0.00000000000000	
8.20330400000000	-12.34864500000000	716.84544300000005	49.77559100000000	0.22459500000000	0.00000000000000	0.11491700000000	0.00000000000000	0.00000000000000	0.00000000000000	0.00000000000000	0.00000000000000	0.00000000000000	0.00000000000000	25.92998200000000	0.00000000000000	0.00000000000000	0.00000000000000	0.00000000000000	
8.20497800000000	-13.01408200000000	717.72680400000002	49.69306000000000	0.22364800000000	0.00000000000000	0.11482200000000	0.00000000000000	0.00000000000000	0.00000000000000	0.00000000000000	0.00000000000000	0.00000000000000	0.00000000000000	25.98890800000000	0.00000000000000	0.00000000000000	0.00000000000000	0.00000000000000	
8.20663700000000	-13.68204200000000	718.64519099999995	49.61358600000000	0.22271600000000	0.00000000000000	0.11472700000000	0.00000000000000	0.00000000000000	0.00000000000000	0.00000000000000	0.00000000000000	0.00000000000000	0.00000000000000	26.05034300000000	0.00000000000000	0.00000000000000	0.00000000000000	0.00000000000000	
8.20830000000000	-14.35227800000000	719.60064100000000	49.53755500000000	0.22179900000000	0.00000000000000	0.11463400000000	0.00000000000000	0.00000000000000	0.00000000000000	0.00000000000000	0.00000000000000	0.00000000000000	0.00000000000000	26.11430100000000	0.00000000000000	0.00000000000000	0.00000000000000	0.00000000000000	
